<svg width="213" height="52" viewBox="0 0 213 52" fill="none" xmlns="http://www.w3.org/2000/svg">
<path d="M3.17188 10.4531L10.5078 13.418V15.7148L0.921875 11.2734V9.5625L10.5078 5.13281V7.42969L3.17188 10.4531ZM14.3633 19.4648H12.5L19.625 0.9375H21.4766L14.3633 19.4648ZM41.9557 14.736C41.9557 16.056 40.9237 17.064 39.5557 17.064C38.1877 17.064 37.1557 16.056 37.1557 14.736V6.024C37.1557 3.984 35.5717 2.424 33.4597 2.424C31.3477 2.424 29.7637 3.984 29.7637 6.024V14.736C29.7637 16.056 28.7317 17.064 27.3637 17.064C25.9957 17.064 24.9637 16.056 24.9637 14.736V3.24C24.9637 2.88 24.6757 2.592 24.3157 2.592C23.9557 2.592 23.6677 2.88 23.6677 3.24V14.712C23.6677 16.752 25.2517 18.312 27.3637 18.312C29.4757 18.312 31.0597 16.752 31.0597 14.712V6C31.0597 4.68 32.0917 3.672 33.4597 3.672C34.8277 3.672 35.8597 4.68 35.8597 6V14.712C35.8597 16.752 37.4437 18.312 39.5557 18.312C41.6677 18.312 43.2517 16.752 43.2517 14.712V3.24C43.2517 2.88 42.9637 2.592 42.6037 2.592C42.2437 2.592 41.9557 2.88 41.9557 3.24V14.736ZM57.614 18C57.95 18 58.238 17.712 58.238 17.376C58.238 17.04 57.95 16.752 57.614 16.752H51.542C48.782 16.752 46.862 14.76 46.862 12.072V11.208C46.862 8.544 48.782 6.528 51.542 6.528H55.454C56.99 6.528 57.998 7.584 57.998 8.856C57.998 10.128 56.99 11.16 55.454 11.16H49.766C49.43 11.16 49.142 11.448 49.142 11.784C49.142 12.12 49.43 12.408 49.766 12.408H55.454C57.758 12.408 59.294 10.8 59.294 8.856C59.294 6.912 57.758 5.28 55.454 5.28H51.518C48.014 5.28 45.566 7.824 45.566 11.208V12.072C45.566 15.456 48.014 18 51.518 18H57.614ZM73.3496 12.072C73.3496 14.76 71.4296 16.752 68.6696 16.752H62.8856V6.528H68.6696C71.4296 6.528 73.3496 8.544 73.3496 11.208V12.072ZM68.6936 18C72.1976 18 74.6456 15.456 74.6456 12.072V11.208C74.6456 7.824 72.1976 5.28 68.6936 5.28H62.8856V0.696C62.8856 0.335999 62.5976 0.0479994 62.2376 0.0479994C61.8776 0.0479994 61.5896 0.335999 61.5896 0.696V17.28C61.5896 17.712 61.9016 18 62.3096 18H68.6936ZM84.3091 18C88.1731 18 91.1491 15.024 91.1491 11.184V9.576C91.1491 5.712 88.1731 2.736 84.3091 2.736H77.6611C77.2531 2.736 76.9411 3.048 76.9411 3.48V17.28C76.9411 17.688 77.2531 18 77.6611 18H84.3091ZM89.8531 11.184C89.8531 14.352 87.4531 16.752 84.3091 16.752H78.2371V3.984H84.3091C87.4531 3.984 89.8531 6.408 89.8531 9.576V11.184ZM104.887 18C105.223 18 105.511 17.712 105.511 17.376C105.511 17.04 105.223 16.752 104.887 16.752H98.8154C96.0554 16.752 94.1354 14.76 94.1354 12.072V11.208C94.1354 8.544 96.0554 6.528 98.8154 6.528H102.727C104.263 6.528 105.271 7.584 105.271 8.856C105.271 10.128 104.263 11.16 102.727 11.16H97.0394C96.7034 11.16 96.4154 11.448 96.4154 11.784C96.4154 12.12 96.7034 12.408 97.0394 12.408H102.727C105.031 12.408 106.567 10.8 106.567 8.856C106.567 6.912 105.031 5.28 102.727 5.28H98.7914C95.2874 5.28 92.8394 7.824 92.8394 11.208V12.072C92.8394 15.456 95.2874 18 98.7914 18H104.887ZM114.911 16.728C114.863 16.824 114.791 16.92 114.695 16.92C114.599 16.92 114.527 16.824 114.479 16.728L109.079 5.496C108.911 5.16 108.551 5.016 108.215 5.184C107.903 5.328 107.759 5.736 107.927 6.072L113.351 17.232C113.663 17.856 114.071 18.168 114.695 18.168C115.319 18.168 115.727 17.856 116.039 17.232L121.463 6.072C121.631 5.736 121.487 5.328 121.175 5.184C120.839 5.016 120.479 5.16 120.311 5.496L114.911 16.728ZM134.653 18C134.989 18 135.277 17.712 135.277 17.376C135.277 17.04 134.989 16.752 134.653 16.752H128.581C125.821 16.752 123.901 14.76 123.901 12.072V11.208C123.901 8.544 125.821 6.528 128.581 6.528H132.493C134.029 6.528 135.037 7.584 135.037 8.856C135.037 10.128 134.029 11.16 132.493 11.16H126.805C126.469 11.16 126.181 11.448 126.181 11.784C126.181 12.12 126.469 12.408 126.805 12.408H132.493C134.797 12.408 136.333 10.8 136.333 8.856C136.333 6.912 134.797 5.28 132.493 5.28H128.557C125.053 5.28 122.605 7.824 122.605 11.208V12.072C122.605 15.456 125.053 18 128.557 18H134.653ZM138.629 17.496C138.629 17.856 138.917 18.144 139.277 18.144C139.637 18.144 139.925 17.856 139.925 17.496V0.696C139.925 0.335999 139.637 0.0479994 139.277 0.0479994C138.917 0.0479994 138.629 0.335999 138.629 0.696V17.496ZM155.134 12.072C155.134 14.76 153.19 16.752 150.43 16.752H148.198C145.438 16.752 143.518 14.76 143.518 12.072V11.208C143.518 8.544 145.438 6.528 148.198 6.528H150.43C153.19 6.528 155.134 8.544 155.134 11.208V12.072ZM150.478 18C153.982 18 156.43 15.456 156.43 12.072V11.208C156.43 7.824 153.982 5.28 150.478 5.28H148.174C144.67 5.28 142.222 7.824 142.222 11.208V12.072C142.222 15.456 144.67 18 148.174 18H150.478ZM170.498 12.072C170.498 14.736 168.578 16.752 165.818 16.752H160.034V6.528H165.818C168.578 6.528 170.498 8.52 170.498 11.208V12.072ZM165.842 18C169.346 18 171.794 15.456 171.794 12.072V11.208C171.794 7.824 169.346 5.28 165.842 5.28H159.458C159.05 5.28 158.738 5.568 158.738 6V22.584C158.738 22.944 159.026 23.232 159.386 23.232C159.746 23.232 160.034 22.944 160.034 22.584V18H165.842ZM185.7 18C186.036 18 186.324 17.712 186.324 17.376C186.324 17.04 186.036 16.752 185.7 16.752H179.628C176.868 16.752 174.948 14.76 174.948 12.072V11.208C174.948 8.544 176.868 6.528 179.628 6.528H183.54C185.076 6.528 186.084 7.584 186.084 8.856C186.084 10.128 185.076 11.16 183.54 11.16H177.852C177.516 11.16 177.228 11.448 177.228 11.784C177.228 12.12 177.516 12.408 177.852 12.408H183.54C185.844 12.408 187.38 10.8 187.38 8.856C187.38 6.912 185.844 5.28 183.54 5.28H179.604C176.1 5.28 173.652 7.824 173.652 11.208V12.072C173.652 15.456 176.1 18 179.604 18H185.7ZM200.572 9.552C200.572 7.128 198.724 5.28 196.228 5.28H190.396C189.964 5.28 189.676 5.592 189.676 6V17.496C189.676 17.856 189.964 18.144 190.324 18.144C190.684 18.144 190.972 17.856 190.972 17.496V6.528H196.228C198.004 6.528 199.276 7.824 199.276 9.552V10.68C199.276 11.04 199.564 11.328 199.924 11.328C200.284 11.328 200.572 11.04 200.572 10.68V9.552ZM210.699 10.3828L202.953 7.34766V5.12109L212.961 9.55078V11.2617L202.953 15.7031V13.4531L210.699 10.3828ZM73.0859 50.2891C71.7031 49.8984 70.6602 49.2539 69.957 48.3555C69.2617 47.4648 68.9141 46.2852 68.9141 44.8164V42.4844C68.9141 40.5859 68.0859 39.6367 66.4297 39.6367V37.9375C68.0859 37.9375 68.9141 36.9922 68.9141 35.1016V32.6641C68.9297 31.2344 69.2773 30.082 69.957 29.207C70.6445 28.3242 71.6875 27.6836 73.0859 27.2852L73.5312 28.6328C71.8984 29.1562 71.082 30.5195 71.082 32.7227V35.0898C71.082 36.8633 70.4297 38.0977 69.125 38.793C70.4297 39.4961 71.082 40.7422 71.082 42.5312V44.9453C71.1055 47.0938 71.9219 48.4258 73.5312 48.9414L73.0859 50.2891ZM82.0205 46C84.5885 46 86.5325 44.056 86.5325 41.392V31.24C86.5325 30.88 86.2445 30.592 85.8845 30.592C85.5245 30.592 85.2365 30.88 85.2365 31.24V41.416C85.2365 43.336 83.8925 44.752 82.0445 44.752H79.1405C77.2925 44.752 75.9725 43.36 75.9725 41.416V39.4C75.9725 39.04 75.6845 38.752 75.3245 38.752C74.9645 38.752 74.6765 39.04 74.6765 39.4V41.392C74.6765 44.056 76.5965 46 79.1645 46H82.0205ZM101.697 40.072C101.697 42.76 99.7528 44.752 96.9928 44.752H94.7608C92.0008 44.752 90.0808 42.76 90.0808 40.072V39.208C90.0808 36.544 92.0008 34.528 94.7608 34.528H96.9928C99.7528 34.528 101.697 36.544 101.697 39.208V40.072ZM97.0408 46C100.545 46 102.993 43.456 102.993 40.072V39.208C102.993 35.824 100.545 33.28 97.0408 33.28H94.7368C91.2328 33.28 88.7848 35.824 88.7848 39.208V40.072C88.7848 43.456 91.2328 46 94.7368 46H97.0408ZM112.333 46C115.045 46 117.253 43.792 117.253 41.08V33.784C117.253 33.424 116.965 33.136 116.605 33.136C116.245 33.136 115.957 33.424 115.957 33.784V41.104C115.957 43.096 114.325 44.752 112.333 44.752H110.148C108.157 44.752 106.549 43.096 106.549 41.104V33.784C106.549 33.424 106.261 33.136 105.901 33.136C105.541 33.136 105.253 33.424 105.253 33.784V41.08C105.253 43.792 107.437 46 110.148 46H112.333ZM131.079 37.552C131.079 35.128 129.231 33.28 126.735 33.28H120.903C120.471 33.28 120.183 33.592 120.183 34V45.496C120.183 45.856 120.471 46.144 120.831 46.144C121.191 46.144 121.479 45.856 121.479 45.496V34.528H126.735C128.511 34.528 129.783 35.824 129.783 37.552V38.68C129.783 39.04 130.071 39.328 130.431 39.328C130.791 39.328 131.079 39.04 131.079 38.68V37.552ZM144.035 45.496C144.035 45.856 144.323 46.144 144.683 46.144C145.043 46.144 145.331 45.856 145.331 45.496V38.104C145.331 35.416 143.195 33.28 140.507 33.28H134.099C133.667 33.28 133.379 33.592 133.379 34V45.496C133.379 45.856 133.667 46.144 134.027 46.144C134.387 46.144 134.675 45.856 134.675 45.496V34.528H140.507C142.475 34.528 144.035 36.112 144.035 38.104V45.496ZM159.637 46C159.973 46 160.261 45.712 160.261 45.376C160.261 45.04 159.973 44.752 159.637 44.752H153.565C150.805 44.752 148.885 42.76 148.885 40.072V39.208C148.885 36.544 150.805 34.528 153.565 34.528H157.477C159.013 34.528 160.021 35.584 160.021 36.856C160.021 38.128 159.013 39.16 157.477 39.16H151.789C151.453 39.16 151.165 39.448 151.165 39.784C151.165 40.12 151.453 40.408 151.789 40.408H157.477C159.781 40.408 161.317 38.8 161.317 36.856C161.317 34.912 159.781 33.28 157.477 33.28H153.541C150.037 33.28 147.589 35.824 147.589 39.208V40.072C147.589 43.456 150.037 46 153.541 46H159.637ZM166.661 50.32C166.493 50.656 166.637 51.064 166.949 51.208C167.285 51.376 167.645 51.232 167.813 50.896L176.213 34.072C176.381 33.736 176.237 33.328 175.925 33.184C175.589 33.016 175.229 33.16 175.061 33.496L169.517 44.608L163.829 33.496C163.661 33.16 163.301 33.016 162.965 33.184C162.653 33.328 162.509 33.736 162.677 34.072L168.797 46.024L166.661 50.32ZM176.996 48.9414C178.582 48.4336 179.402 47.1406 179.457 45.0625V42.4844C179.457 40.6797 180.164 39.4492 181.578 38.793C180.164 38.1523 179.457 36.9219 179.457 35.1016V32.7227C179.457 30.5195 178.641 29.1562 177.008 28.6328L177.453 27.2852C178.836 27.6758 179.875 28.3125 180.57 29.1953C181.266 30.0703 181.617 31.2305 181.625 32.6758V35.1367C181.625 37.0039 182.453 37.9375 184.109 37.9375V39.6367C182.453 39.6367 181.625 40.5859 181.625 42.4844V44.8516C181.625 46.3203 181.27 47.4961 180.559 48.3789C179.855 49.2617 178.82 49.8984 177.453 50.2891L176.996 48.9414ZM186.207 34.5156C186.207 34.1406 186.316 33.8281 186.535 33.5781C186.762 33.3281 187.098 33.2031 187.543 33.2031C187.988 33.2031 188.324 33.3281 188.551 33.5781C188.785 33.8281 188.902 34.1406 188.902 34.5156C188.902 34.875 188.785 35.1758 188.551 35.418C188.324 35.6602 187.988 35.7812 187.543 35.7812C187.098 35.7812 186.762 35.6602 186.535 35.418C186.316 35.1758 186.207 34.875 186.207 34.5156ZM186.617 49.3984L185.387 48.5547C186.121 47.5312 186.504 46.4766 186.535 45.3906V43.4336H188.656V45.1328C188.656 45.9219 188.461 46.7109 188.07 47.5C187.688 48.2891 187.203 48.9219 186.617 49.3984Z" fill="#ECF0F1"/>
</svg>
