<svg width="225" height="52" viewBox="0 0 225 52" fill="none" xmlns="http://www.w3.org/2000/svg">
<path d="M3.09375 10.4531L10.4297 13.418V15.7148L0.84375 11.2734V9.5625L10.4297 5.13281V7.42969L3.09375 10.4531ZM14.2852 19.4648H12.4219L19.5469 0.9375H21.3984L14.2852 19.4648ZM42.9816 13.44C42.9816 14.4 42.2616 15.144 41.3496 15.144C40.4376 15.144 39.7176 14.4 39.7176 13.44V7.8C39.7176 4.704 37.6296 2.736 34.7736 2.736C31.9176 2.736 29.8296 4.704 29.8296 7.8V13.44C29.8296 14.4 29.1096 15.144 28.1976 15.144C27.2856 15.144 26.5656 14.4 26.5656 13.44V4.44C26.5656 3.528 25.8216 2.784 24.9096 2.784C23.9976 2.784 23.2536 3.528 23.2536 4.44V13.248C23.2536 16.344 25.3416 18.312 28.1976 18.312C31.0536 18.312 33.1416 16.344 33.1416 13.248V7.608C33.1416 6.648 33.8616 5.904 34.7736 5.904C35.6856 5.904 36.4056 6.648 36.4056 7.608V13.248C36.4056 16.344 38.4936 18.312 41.3496 18.312C44.2056 18.312 46.2936 16.344 46.2936 13.248V4.44C46.2936 3.528 45.5496 2.784 44.6376 2.784C43.7256 2.784 42.9816 3.528 42.9816 4.44V13.44ZM60.1815 18C61.0455 18 61.7415 17.304 61.7415 16.44C61.7415 15.576 61.0455 14.88 60.1815 14.88H54.4695C52.6455 14.88 51.4215 13.632 51.4215 12V11.28C51.4215 9.648 52.6455 8.4 54.4695 8.4H58.1415C58.9335 8.4 59.3415 8.784 59.3415 9.336C59.3415 9.888 58.8855 10.296 58.1415 10.296H54.8295C54.0135 10.296 53.3415 10.968 53.3415 11.784C53.3415 12.6 54.0135 13.272 54.8295 13.272H58.1415C60.9255 13.272 62.5575 11.568 62.5575 9.288C62.5575 7.008 60.9255 5.28 58.1415 5.28H54.1575C50.6535 5.28 48.2055 7.824 48.2055 11.208V12.072C48.2055 15.456 50.6535 18 54.1575 18H60.1815ZM75.7613 12C75.7613 13.632 74.5373 14.88 72.7133 14.88H67.6493V8.4H72.7133C74.5373 8.4 75.7613 9.648 75.7613 11.28V12ZM73.0253 18C76.5293 18 78.9773 15.456 78.9773 12.072V11.208C78.9773 7.824 76.5293 5.28 73.0253 5.28H67.6493V1.608C67.6493 0.719999 66.9293 -1.43051e-06 66.0413 -1.43051e-06C65.1533 -1.43051e-06 64.4333 0.719999 64.4333 1.608V16.68C64.4333 17.4 65.0333 18 65.7533 18H73.0253ZM89.8864 18C93.6784 18 96.5824 15.096 96.5824 11.304V9.432C96.5824 5.64 93.6784 2.736 89.8864 2.736H82.2064C81.4864 2.736 80.8864 3.336 80.8864 4.056V16.68C80.8864 17.4 81.4864 18 82.2064 18H89.8864ZM93.2944 11.304C93.2944 13.296 91.8304 14.832 89.8384 14.832H84.1984V5.904H89.8384C91.8304 5.904 93.2944 7.44 93.2944 9.432V11.304ZM110.197 18C111.061 18 111.757 17.304 111.757 16.44C111.757 15.576 111.061 14.88 110.197 14.88H104.485C102.661 14.88 101.437 13.632 101.437 12V11.28C101.437 9.648 102.661 8.4 104.485 8.4H108.157C108.949 8.4 109.357 8.784 109.357 9.336C109.357 9.888 108.901 10.296 108.157 10.296H104.845C104.029 10.296 103.357 10.968 103.357 11.784C103.357 12.6 104.029 13.272 104.845 13.272H108.157C110.941 13.272 112.573 11.568 112.573 9.288C112.573 7.008 110.941 5.28 108.157 5.28H104.173C100.669 5.28 98.2211 7.824 98.2211 11.208V12.072C98.2211 15.456 100.669 18 104.173 18H110.197ZM118.793 16.968C119.201 17.76 120.017 18.312 120.977 18.312C121.937 18.312 122.753 17.76 123.161 16.968L128.153 7.344C128.537 6.624 128.297 5.64 127.529 5.208C126.761 4.8 125.777 5.088 125.393 5.832L120.977 14.544L116.561 5.832C116.177 5.088 115.193 4.8 114.425 5.208C113.657 5.64 113.417 6.624 113.801 7.344L118.793 16.968ZM141.158 18C142.022 18 142.718 17.304 142.718 16.44C142.718 15.576 142.022 14.88 141.158 14.88H135.446C133.622 14.88 132.398 13.632 132.398 12V11.28C132.398 9.648 133.622 8.4 135.446 8.4H139.118C139.91 8.4 140.318 8.784 140.318 9.336C140.318 9.888 139.862 10.296 139.118 10.296H135.806C134.99 10.296 134.318 10.968 134.318 11.784C134.318 12.6 134.99 13.272 135.806 13.272H139.118C141.902 13.272 143.534 11.568 143.534 9.288C143.534 7.008 141.902 5.28 139.118 5.28H135.134C131.63 5.28 129.182 7.824 129.182 11.208V12.072C129.182 15.456 131.63 18 135.134 18H141.158ZM145.41 16.656C145.41 17.544 146.13 18.264 147.018 18.264C147.906 18.264 148.626 17.544 148.626 16.656V1.608C148.626 0.719999 147.906 -1.43051e-06 147.018 -1.43051e-06C146.13 -1.43051e-06 145.41 0.719999 145.41 1.608V16.656ZM162.413 12.072C162.413 13.68 161.285 14.88 159.677 14.88H156.509C154.901 14.88 153.773 13.68 153.773 12.072V11.208C153.773 9.6 154.901 8.4 156.509 8.4H159.677C161.285 8.4 162.413 9.6 162.413 11.208V12.072ZM159.677 18C163.181 18 165.629 15.456 165.629 12.072V11.208C165.629 7.824 163.181 5.28 159.677 5.28H156.509C153.005 5.28 150.557 7.824 150.557 11.208V12.072C150.557 15.456 153.005 18 156.509 18H159.677ZM178.886 12C178.886 13.632 177.662 14.88 175.838 14.88H170.774V8.4H175.838C177.662 8.4 178.886 9.648 178.886 11.28V12ZM176.15 18C179.654 18 182.102 15.456 182.102 12.072V11.208C182.102 7.824 179.654 5.28 176.15 5.28H168.878C168.158 5.28 167.558 5.88 167.558 6.6V21.768C167.558 22.656 168.278 23.376 169.166 23.376C170.054 23.376 170.774 22.656 170.774 21.768V18H176.15ZM195.838 18C196.702 18 197.398 17.304 197.398 16.44C197.398 15.576 196.702 14.88 195.838 14.88H190.126C188.302 14.88 187.078 13.632 187.078 12V11.28C187.078 9.648 188.302 8.4 190.126 8.4H193.798C194.59 8.4 194.998 8.784 194.998 9.336C194.998 9.888 194.542 10.296 193.798 10.296H190.486C189.67 10.296 188.998 10.968 188.998 11.784C188.998 12.6 189.67 13.272 190.486 13.272H193.798C196.582 13.272 198.214 11.568 198.214 9.288C198.214 7.008 196.582 5.28 193.798 5.28H189.814C186.31 5.28 183.862 7.824 183.862 11.208V12.072C183.862 15.456 186.31 18 189.814 18H195.838ZM212.186 10.536C212.186 7.272 210.122 5.28 206.858 5.28H201.41C200.69 5.28 200.09 5.88 200.09 6.6V16.656C200.09 17.544 200.81 18.264 201.698 18.264C202.586 18.264 203.306 17.544 203.306 16.656V8.4H206.858C208.25 8.4 208.97 9.144 208.97 10.536V10.824C208.97 11.712 209.69 12.432 210.578 12.432C211.466 12.432 212.186 11.712 212.186 10.824V10.536ZM221.941 10.3828L214.195 7.34766V5.12109L224.203 9.55078V11.2617L214.195 15.7031V13.4531L221.941 10.3828ZM49.0781 50.2891C47.6953 49.8984 46.6523 49.2539 45.9492 48.3555C45.2539 47.4648 44.9062 46.2852 44.9062 44.8164V42.4844C44.9062 40.5859 44.0781 39.6367 42.4219 39.6367V37.9375C44.0781 37.9375 44.9062 36.9922 44.9062 35.1016V32.6641C44.9219 31.2344 45.2695 30.082 45.9492 29.207C46.6367 28.3242 47.6797 27.6836 49.0781 27.2852L49.5234 28.6328C47.8906 29.1562 47.0742 30.5195 47.0742 32.7227V35.0898C47.0742 36.8633 46.4219 38.0977 45.1172 38.793C46.4219 39.4961 47.0742 40.7422 47.0742 42.5312V44.9453C47.0977 47.0938 47.9141 48.4258 49.5234 48.9414L49.0781 50.2891ZM58.4447 46C61.5407 46 63.8207 43.72 63.8207 40.552V32.128C63.8207 31.216 63.0767 30.472 62.1647 30.472C61.2527 30.472 60.5087 31.216 60.5087 32.128V40.72C60.5087 41.92 59.6447 42.784 58.4447 42.784H55.8527C54.6527 42.784 53.7887 41.92 53.7887 40.72V39.448C53.7887 38.536 53.0447 37.792 52.1327 37.792C51.2207 37.792 50.4767 38.536 50.4767 39.448V40.552C50.4767 43.72 52.7567 46 55.8527 46H58.4447ZM77.5459 40.072C77.5459 41.68 76.4179 42.88 74.8099 42.88H71.6419C70.0339 42.88 68.9059 41.68 68.9059 40.072V39.208C68.9059 37.6 70.0339 36.4 71.6419 36.4H74.8099C76.4179 36.4 77.5459 37.6 77.5459 39.208V40.072ZM74.8099 46C78.3139 46 80.7619 43.456 80.7619 40.072V39.208C80.7619 35.824 78.3139 33.28 74.8099 33.28H71.6419C68.1379 33.28 65.6899 35.824 65.6899 39.208V40.072C65.6899 43.456 68.1379 46 71.6419 46H74.8099ZM90.5151 46C93.6591 46 96.0351 43.624 96.0351 40.48V34.624C96.0351 33.736 95.3151 33.016 94.4271 33.016C93.5391 33.016 92.8191 33.736 92.8191 34.624V40.48C92.8191 41.872 91.7871 42.88 90.4191 42.88H88.2591C86.8911 42.88 85.8591 41.872 85.8591 40.48V34.624C85.8591 33.736 85.1391 33.016 84.2511 33.016C83.3631 33.016 82.6431 33.736 82.6431 34.624V40.48C82.6431 43.624 85.0191 46 88.1631 46H90.5151ZM110.396 38.536C110.396 35.272 108.332 33.28 105.068 33.28H99.6204C98.9004 33.28 98.3004 33.88 98.3004 34.6V44.656C98.3004 45.544 99.0204 46.264 99.9084 46.264C100.796 46.264 101.516 45.544 101.516 44.656V36.4H105.068C106.46 36.4 107.18 37.144 107.18 38.536V38.824C107.18 39.712 107.9 40.432 108.788 40.432C109.676 40.432 110.396 39.712 110.396 38.824V38.536ZM122.116 44.656C122.116 45.544 122.836 46.264 123.724 46.264C124.612 46.264 125.332 45.544 125.332 44.656V38.8C125.332 35.656 122.956 33.28 119.812 33.28H113.308C112.588 33.28 111.988 33.88 111.988 34.6V44.656C111.988 45.544 112.708 46.264 113.596 46.264C114.484 46.264 115.204 45.544 115.204 44.656V36.4H119.716C121.084 36.4 122.116 37.408 122.116 38.8V44.656ZM139.189 46C140.053 46 140.749 45.304 140.749 44.44C140.749 43.576 140.053 42.88 139.189 42.88H133.477C131.653 42.88 130.429 41.632 130.429 40V39.28C130.429 37.648 131.653 36.4 133.477 36.4H137.149C137.941 36.4 138.349 36.784 138.349 37.336C138.349 37.888 137.893 38.296 137.149 38.296H133.837C133.021 38.296 132.349 38.968 132.349 39.784C132.349 40.6 133.021 41.272 133.837 41.272H137.149C139.933 41.272 141.565 39.568 141.565 37.288C141.565 35.008 139.933 33.28 137.149 33.28H133.165C129.661 33.28 127.213 35.824 127.213 39.208V40.072C127.213 43.456 129.661 46 133.165 46H139.189ZM146.561 49.048C146.177 49.768 146.417 50.752 147.185 51.184C147.953 51.592 148.937 51.304 149.321 50.56L157.145 35.344C157.529 34.624 157.289 33.64 156.521 33.208C155.753 32.8 154.769 33.088 154.385 33.832L149.969 42.544L145.553 33.832C145.169 33.088 144.185 32.8 143.417 33.208C142.649 33.64 142.409 34.624 142.793 35.344L148.241 45.832L146.561 49.048ZM157.863 48.9414C159.449 48.4336 160.27 47.1406 160.324 45.0625V42.4844C160.324 40.6797 161.031 39.4492 162.445 38.793C161.031 38.1523 160.324 36.9219 160.324 35.1016V32.7227C160.324 30.5195 159.508 29.1562 157.875 28.6328L158.32 27.2852C159.703 27.6758 160.742 28.3125 161.438 29.1953C162.133 30.0703 162.484 31.2305 162.492 32.6758V35.1367C162.492 37.0039 163.32 37.9375 164.977 37.9375V39.6367C163.32 39.6367 162.492 40.5859 162.492 42.4844V44.8516C162.492 46.3203 162.137 47.4961 161.426 48.3789C160.723 49.2617 159.688 49.8984 158.32 50.2891L157.863 48.9414ZM167.074 34.5156C167.074 34.1406 167.184 33.8281 167.402 33.5781C167.629 33.3281 167.965 33.2031 168.41 33.2031C168.855 33.2031 169.191 33.3281 169.418 33.5781C169.652 33.8281 169.77 34.1406 169.77 34.5156C169.77 34.875 169.652 35.1758 169.418 35.418C169.191 35.6602 168.855 35.7812 168.41 35.7812C167.965 35.7812 167.629 35.6602 167.402 35.418C167.184 35.1758 167.074 34.875 167.074 34.5156ZM167.484 49.3984L166.254 48.5547C166.988 47.5312 167.371 46.4766 167.402 45.3906V43.4336H169.523V45.1328C169.523 45.9219 169.328 46.7109 168.938 47.5C168.555 48.2891 168.07 48.9219 167.484 49.3984Z" fill="black"/>
</svg>
